<?xml version="1.0" standalone="no"?>
<!DOCTYPE svg PUBLIC "-//W3C//DTD SVG 20010904//EN"
 "http://www.w3.org/TR/2001/REC-SVG-20010904/DTD/svg10.dtd">
<svg version="1.0" xmlns="http://www.w3.org/2000/svg"
 width="128.000000pt" height="128.000000pt" viewBox="0 0 128.000000 128.000000"
 preserveAspectRatio="xMidYMid meet">
<metadata>
Created by potrace 1.11, written by Peter Selinger 2001-2013
</metadata>
<g transform="translate(0.000000,128.000000) scale(0.100000,-0.100000)"
fill="#000000" stroke="none">
<path d="M23 1262 l-23 -3 0 -295 0 -294 43 0 43 0 -1 121 c0 66 3 125 6 131
3 5 32 8 64 6 l57 -3 0 -127 -1 -128 45 0 44 0 -2 297 -3 297 -22 -1 c-69 -3
-63 10 -63 -133 l0 -130 -60 0 c-33 0 -60 3 -61 8 -1 4 -2 60 -3 126 -1 109
-3 119 -21 125 -11 4 -30 5 -42 3z"/>
<path d="M400 1262 c-15 -5 -13 -533 3 -553 22 -29 55 -39 126 -39 82 0 115
11 132 42 14 26 21 547 7 549 -5 0 -23 1 -40 2 l-33 1 -3 -262 -2 -262 -58 0
-59 0 1 262 0 261 -32 1 c-18 1 -37 0 -42 -2z"/>
<path d="M803 1262 l-23 -3 0 -295 0 -294 43 0 43 0 -1 251 c0 138 3 255 6
260 3 6 30 9 60 7 l54 -3 0 -257 0 -258 42 0 43 0 0 260 0 260 59 0 59 0 0
-197 c1 -109 1 -226 1 -260 l1 -63 40 0 40 0 0 270 0 271 -25 24 c-24 25 -30
27 -85 27 -68 0 -81 -3 -99 -21 -18 -18 -19 -18 -38 1 -26 26 -106 27 -134 2
-17 -15 -23 -13 -21 7 2 9 -37 15 -65 11z"/>
<path d="M5 558 c30 -244 214 -459 455 -533 77 -23 239 -28 320 -10 260 60
461 282 495 548 l7 47 -99 0 -98 0 -12 -61 c-46 -244 -288 -401 -533 -346
-183 41 -327 208 -339 395 -1 9 -28 12 -102 12 l-100 0 6 -52z"/>
</g>
</svg>
